{"title":"The Blues Brothers(1980)[x264][AC3(5.1)] Nordic_Sub.mkv","uid":5257286,"size":1883012442,"categoryP":"video","categoryS":"movies","magnet":"?xt=urn:btih:ec9cd2b991da6157cc2916aea78dcf4515fe4e74&amp;dn=The+Blues+Brothers%281980%29%5Bx264%5D%5BAC3%285.1%29%5D+Nordic_Sub.mkv&amp;tr=udp%3A%2F%2Ftracker.openbittorrent.com%3A80&amp;tr=udp%3A%2F%2Fopen.demonii.com%3A1337&amp;tr=udp%3A%2F%2Ftracker.coppersurfer.tk%3A6969&amp;tr=udp%3A%2F%2Fexodus.desync.com%3A6969","seeders":0,"leechers":1,"uploader":"Zen_Bud","files":-1,"time":1262620316,"description":"General\nComplete name                    : Blues Brothers.mkv\nFormat                           : Matroska\nFile size                        : 1.75 GiB\nDuration                         : 2h 21mn\nOverall bit rate                 : 1 771 Kbps\n\nVideo\nID                               : 1\nFormat                           : AVC\nCodec ID                         : V_MPEG4/ISO/AVC\nDuration                         : 2h 21mn\nBit rate                         : 1 352 Kbps\nWidth                            : 718 pixels\nHeight                           : 548 pixels\nDisplay aspect ratio             : 1.863\nFrame rate                       : 25.000 fps\nResolution                       : 8 bits\nColorimetry                      : 4:2:0\nScan type                        : Progressive\nBits/(Pixel*Frame)               : 0.137\nStream size                      : 1.34 GiB (76%)\nWriting library                  : x264 core 79\n\nAudio\nID                               : 2\nFormat                           : AC-3\nFormat/Info                      : Audio Coding 3\nCodec ID                         : A_AC3\nDuration                         : 2h 21mn\nBit rate mode                    : Constant\nBit rate                         : 384 Kbps\nChannel(s)                       : 6 channels\nChannel positions                : Front: L C R, Surround: L R, LFE\nSampling rate                    : 48.0 KHz\nStream size                      : 389 MiB (22%)\nLanguage                         : English\n\nText #1\nLanguage                         : Danish\n\nText #2\nLanguage                         : Finnish\n\nText #3\nLanguage                         : Swedish\n\nText #4\nLanguage                         : Norwegian\n\n\n\n","torrent":{"xt":"urn:btih:ec9cd2b991da6157cc2916aea78dcf4515fe4e74","amp;dn":"The+Blues+Brothers%281980%29%5Bx264%5D%5BAC3%285.1%29%5D+Nordic_Sub.mkv","amp;tr":["udp%3A%2F%2Ftracker.openbittorrent.com%3A80","udp%3A%2F%2Fopen.demonii.com%3A1337","udp%3A%2F%2Ftracker.coppersurfer.tk%3A6969","udp%3A%2F%2Fexodus.desync.com%3A6969"],"infoHash":"ec9cd2b991da6157cc2916aea78dcf4515fe4e74","infoHashBuffer":{"type":"Buffer","data":[236,156,210,185,145,218,97,87,204,41,22,174,167,141,207,69,21,254,78,116]},"announce":[],"urlList":[]}}